<svg width="14" height="153" viewBox="0 0 14 153" fill="none" xmlns="http://www.w3.org/2000/svg">
<path fill-rule="evenodd" clip-rule="evenodd" d="M13.5324 145.146C14.1559 145.787 14.1559 146.826 13.5324 147.468L8.62015 152.519C8.03628 153.12 7.10355 153.163 6.46922 152.619L0.574522 147.568C-0.102829 146.987 -0.194345 145.952 0.370114 145.256C0.934572 144.559 1.94126 144.465 2.61861 145.045L5.89478 147.853L5.8948 7.00916L0.638694 2.95527C-0.0666762 2.41123 -0.20963 1.38218 0.319397 0.656801C0.848424 -0.0685752 1.8491 -0.215584 2.55447 0.328448L8.44917 4.87487C8.85117 5.18492 9.08776 5.67152 9.08776 6.18827L9.08774 147.395L11.2746 145.146C11.8981 144.505 12.9089 144.505 13.5324 145.146Z" fill="#454138"/>
</svg>
