<svg width="188" height="114" viewBox="0 0 188 114" fill="none" xmlns="http://www.w3.org/2000/svg">
<path d="M127.263 48.6685L188 48.6684L188 65.3316L127.263 65.3316L127.263 48.6685Z" fill="black" fill-opacity="0.08"/>
<path d="M79.222 102.722L68.2528 114L-4.9831e-06 57L68.2528 1.04686e-05L79.222 11.1765L23.8682 56.7968L79.222 102.722Z" fill="black" fill-opacity="0.08"/>
<path d="M137.969 58.5938V56.8984H142.828V58.5938H137.969Z" fill="#DCD8C0"/>
<path d="M146.234 62V51.7891H152.383V53.4141H148.188V55.9531H152.188V57.5391H148.188V60.375H152.383V62H146.234Z" fill="#DCD8C0"/>
<path d="M159.375 62L156.641 55.9062L156.078 54.5938V58.8281V62H154.328V51.7891H156.688L159.477 57.9219L159.969 59.1172V54.6094V51.7891H161.719V62H159.375Z" fill="#DCD8C0"/>
<path d="M170.773 56.7656C170.773 57.5573 170.674 58.276 170.477 58.9219C170.284 59.5677 169.979 60.1198 169.562 60.5781C169.151 61.0312 168.622 61.3828 167.977 61.6328C167.331 61.8776 166.557 62 165.656 62H163.062V51.7891H166.086C166.867 51.7891 167.549 51.888 168.133 52.0859C168.721 52.2786 169.211 52.5781 169.602 52.9844C169.992 53.3906 170.284 53.9062 170.477 54.5312C170.674 55.1562 170.773 55.901 170.773 56.7656ZM168.711 56.8906C168.711 56.3385 168.667 55.8464 168.578 55.4141C168.49 54.9818 168.339 54.6172 168.125 54.3203C167.917 54.0182 167.635 53.7891 167.281 53.6328C166.927 53.4766 166.487 53.3984 165.961 53.3984H164.984V60.3906H165.828C166.771 60.3906 167.487 60.1094 167.977 59.5469C168.466 58.9844 168.711 58.099 168.711 56.8906Z" fill="#DCD8C0"/>
<path d="M173.156 58.5938V56.8984H178.016V58.5938H173.156Z" fill="#DCD8C0"/>
</svg>
