<svg width="121" height="62" viewBox="0 0 121 62" fill="none" xmlns="http://www.w3.org/2000/svg">
<mask id="mask0_111_7" style="mask-type:alpha" maskUnits="userSpaceOnUse" x="0" y="0" width="121" height="62">
<rect width="121" height="62" fill="#D9D9D9"/>
</mask>
<g mask="url(#mask0_111_7)">
<path d="M0.173828 0H120.696V61.6957H0.173828V0Z" fill="#CD664D"/>
<path d="M11.8718 66C8.97077 66 6.35987 65.6476 4.03907 64.9429C1.71827 64.2075 -0.266626 63.1198 -1.91562 61.6797C-3.53407 60.2089 -4.78608 58.3705 -5.67165 56.1643C-6.55722 53.9276 -7 51.3078 -7 48.305C-7 45.6699 -6.72517 43.0808 -6.17551 40.5376C-5.59531 37.9638 -4.77081 35.5279 -3.70202 33.2298C-2.60269 30.9011 -1.27434 28.7716 0.283037 26.8412C1.87095 24.8802 3.68789 23.195 5.73386 21.7855C7.81037 20.3454 10.0854 19.227 12.5588 18.4304C15.0629 17.6337 17.7654 17.2354 20.6664 17.2354C23.5368 17.2354 26.1325 17.6031 28.4533 18.3384C30.8046 19.0432 32.7895 20.1309 34.408 21.6017C36.0569 23.0418 37.3242 24.8802 38.2098 27.117C39.0954 29.3231 39.5382 31.9276 39.5382 34.9304C39.5382 37.5655 39.2481 40.1699 38.6679 42.7437C38.1182 45.2869 37.309 47.7075 36.2402 50.0056C35.1714 52.3036 33.843 54.4331 32.2551 56.3941C30.6672 58.3552 28.8503 60.0557 26.8043 61.4958C24.7583 62.9053 22.4833 64.0084 19.9793 64.805C17.4753 65.6017 14.7728 66 11.8718 66ZM27.812 36.0334C27.812 33 27.0639 30.7326 25.5675 29.2312C24.1018 27.6992 21.9795 26.9331 19.2006 26.9331C17.5516 26.9331 16.0553 27.2549 14.7117 27.8983C13.3681 28.5111 12.1466 29.3384 11.0473 30.3802C9.97849 31.422 9.04711 32.6323 8.25315 34.0111C7.4592 35.39 6.80265 36.8301 6.28353 38.3315C5.7644 39.8329 5.36742 41.3496 5.09259 42.8816C4.8483 44.383 4.72615 45.8078 4.72615 47.156C4.72615 50.1894 5.4743 52.4721 6.97061 54.0042C8.46691 55.5362 10.6045 56.3022 13.3833 56.3022C15.0323 56.3022 16.5286 55.9958 17.8723 55.383C19.2159 54.7396 20.4221 53.8969 21.4909 52.8552C22.5597 51.7827 23.491 50.5724 24.285 49.2242C25.079 47.8454 25.7355 46.4053 26.2546 44.9039C26.7738 43.4025 27.1555 41.8858 27.3998 40.3538C27.6746 38.8217 27.812 37.3816 27.812 36.0334Z" fill="#DCD8C0"/>
<path d="M90.5652 33.4137C90.5652 38.1323 89.9392 42.468 88.6872 46.4206C87.4352 50.3733 85.6182 53.7897 83.2364 56.6699C80.8545 59.5195 77.9382 61.7563 74.4876 63.3802C71.0369 64.9735 67.1129 65.7702 62.7156 65.7702C60.7307 65.7702 58.8985 65.6936 57.219 65.5404C55.5395 65.4178 53.9363 65.234 52.4094 64.9889C50.9131 64.7437 49.4779 64.4526 48.1037 64.1156C46.7601 63.7786 45.4318 63.3955 44.1187 62.9666L56.6693 0H67.8458L64.6852 15.9944L61.3873 25.6922C62.2118 24.3747 63.1889 23.195 64.3188 22.1532C65.4487 21.1114 66.6854 20.2228 68.029 19.4875C69.3726 18.7521 70.7773 18.2006 72.2431 17.8329C73.7394 17.4345 75.251 17.2354 76.7778 17.2354C81.2973 17.2354 84.7174 18.6448 87.0382 21.4638C89.3895 24.2827 90.5652 28.266 90.5652 33.4137ZM78.9307 34.149C78.9307 31.6978 78.5032 29.8287 77.6481 28.5418C76.8236 27.2549 75.5564 26.6114 73.8463 26.6114C72.8997 26.6114 71.9072 26.8719 70.8689 27.3928C69.8612 27.9137 68.8382 28.6337 67.8 29.5529C66.7923 30.4415 65.7998 31.4986 64.8227 32.7242C63.876 33.9192 62.9904 35.2061 62.1659 36.585C61.372 37.9331 60.6849 39.3273 60.1047 40.7674C59.5245 42.2075 59.1123 43.617 58.868 44.9958L56.6693 55.9805C57.6465 56.3176 58.6542 56.578 59.6925 56.7618C60.7307 56.9457 61.83 57.0376 62.9904 57.0376C65.1586 57.0376 67.0518 56.6546 68.6703 55.8886C70.3193 55.0919 71.724 54.0655 72.8844 52.8092C74.0753 51.5223 75.0525 50.0669 75.8159 48.4429C76.6099 46.8189 77.2359 45.1643 77.6939 43.4791C78.152 41.7939 78.4726 40.1393 78.6558 38.5153C78.8391 36.8914 78.9307 35.4359 78.9307 34.149Z" fill="#DCD8C0"/>
<path d="M97 46H113V62H97V46Z" fill="#DCD8C0"/>
</g>
</svg>
