<svg width="69" height="41" viewBox="0 0 69 41" fill="none" xmlns="http://www.w3.org/2000/svg">
<path d="M16.2394 23.2119L20.8473 18.604L30.4827 28.2393L33.741 31.1192L36.9993 28.2393L46.3452 18.8935L50.9531 23.5015L33.741 40.7136L16.2394 23.2119Z" fill="#454138"/>
<path d="M22.7705 6.54004C22.7705 6.82324 22.707 7.06576 22.5801 7.26758C22.4564 7.46615 22.2904 7.62891 22.082 7.75586C21.877 7.87956 21.6426 7.96908 21.3789 8.02441C21.1185 8.08301 20.8516 8.1123 20.5781 8.1123C20.2135 8.1123 19.8848 8.0944 19.5918 8.05859C19.2988 8.02604 19.0221 7.97721 18.7617 7.91211V6.83789C19.0677 6.96484 19.3721 7.05762 19.6748 7.11621C19.9808 7.17155 20.2689 7.19922 20.5391 7.19922C20.8516 7.19922 21.0843 7.15039 21.2373 7.05273C21.3936 6.95182 21.4717 6.82161 21.4717 6.66211C21.4717 6.58724 21.4554 6.51888 21.4229 6.45703C21.3903 6.39518 21.3285 6.33659 21.2373 6.28125C21.1494 6.22266 21.0241 6.16406 20.8613 6.10547C20.6986 6.04362 20.4854 5.97526 20.2217 5.90039C19.9775 5.83203 19.7627 5.75553 19.5771 5.6709C19.3949 5.58301 19.2435 5.48047 19.123 5.36328C19.0026 5.24609 18.9115 5.111 18.8496 4.95801C18.791 4.80176 18.7617 4.61947 18.7617 4.41113C18.7617 4.20931 18.8073 4.01888 18.8984 3.83984C18.9896 3.66081 19.1247 3.50456 19.3037 3.37109C19.486 3.23438 19.7122 3.12695 19.9824 3.04883C20.2526 2.9707 20.5684 2.93164 20.9297 2.93164C21.2422 2.93164 21.5189 2.94792 21.7598 2.98047C22.0007 3.01302 22.2139 3.04883 22.3994 3.08789V4.05957C22.1162 3.96842 21.8493 3.90495 21.5986 3.86914C21.3512 3.83008 21.1055 3.81055 20.8613 3.81055C20.6172 3.81055 20.4202 3.85449 20.2705 3.94238C20.124 4.03027 20.0508 4.15234 20.0508 4.30859C20.0508 4.38346 20.0654 4.4502 20.0947 4.50879C20.124 4.56738 20.181 4.62435 20.2656 4.67969C20.3535 4.73503 20.474 4.79362 20.627 4.85547C20.7832 4.91406 20.9883 4.97917 21.2422 5.05078C21.5286 5.13216 21.7695 5.22005 21.9648 5.31445C22.1602 5.4056 22.3164 5.50977 22.4336 5.62695C22.554 5.74414 22.6403 5.8776 22.6924 6.02734C22.7445 6.17708 22.7705 6.34798 22.7705 6.54004ZM28.1904 7.80957C27.9561 7.90397 27.7135 7.97396 27.4629 8.01953C27.2122 8.0651 26.9502 8.08789 26.6768 8.08789C26.2829 8.08789 25.9297 8.03418 25.6172 7.92676C25.3047 7.81934 25.0394 7.65983 24.8213 7.44824C24.6032 7.23665 24.4355 6.97461 24.3184 6.66211C24.2044 6.34961 24.1475 5.98828 24.1475 5.57812C24.1475 5.18099 24.2093 4.82129 24.333 4.49902C24.46 4.17676 24.6374 3.90169 24.8652 3.67383C25.0931 3.44596 25.3665 3.27018 25.6855 3.14648C26.0078 3.02279 26.3659 2.96094 26.7598 2.96094C27.082 2.96094 27.3522 2.97884 27.5703 3.01465C27.7917 3.0472 27.9902 3.08952 28.166 3.1416V4.29883C27.9642 4.19792 27.7445 4.11979 27.5068 4.06445C27.2725 4.00911 27.0495 3.98145 26.8379 3.98145C26.6165 3.98145 26.418 4.01888 26.2422 4.09375C26.0664 4.16862 25.9183 4.27279 25.7979 4.40625C25.6774 4.53971 25.5846 4.70247 25.5195 4.89453C25.4577 5.08333 25.4268 5.29167 25.4268 5.51953C25.4268 5.75716 25.4609 5.97038 25.5293 6.15918C25.5977 6.34798 25.6937 6.50911 25.8174 6.64258C25.9443 6.77279 26.0957 6.8737 26.2715 6.94531C26.4473 7.01367 26.6426 7.04785 26.8574 7.04785C26.9616 7.04785 27.0706 7.04134 27.1846 7.02832C27.3018 7.01204 27.4173 6.99089 27.5312 6.96484C27.6484 6.93555 27.7624 6.90299 27.873 6.86719C27.987 6.83138 28.0928 6.79232 28.1904 6.75V7.80957ZM32.8682 4.96777C32.8747 4.78223 32.8649 4.62435 32.8389 4.49414C32.8161 4.36393 32.777 4.25651 32.7217 4.17188C32.6696 4.08724 32.6045 4.02539 32.5264 3.98633C32.4482 3.94727 32.3587 3.92773 32.2578 3.92773C32.082 3.92773 31.8997 4.00098 31.7109 4.14746C31.5254 4.29069 31.3203 4.52832 31.0957 4.86035V8H29.875V3.03906H30.9541L30.998 3.76172C31.0794 3.63477 31.1706 3.52083 31.2715 3.41992C31.3757 3.31901 31.4896 3.23275 31.6133 3.16113C31.7402 3.08626 31.8802 3.0293 32.0332 2.99023C32.1862 2.95117 32.3538 2.93164 32.5361 2.93164C32.7868 2.93164 33.0081 2.97559 33.2002 3.06348C33.3955 3.14811 33.5583 3.27507 33.6885 3.44434C33.8219 3.61361 33.9196 3.82682 33.9814 4.08398C34.0465 4.33789 34.0742 4.63249 34.0645 4.96777H32.8682ZM39.6406 5.48047C39.6406 5.87109 39.5853 6.22917 39.4746 6.55469C39.3639 6.87695 39.2044 7.15365 38.9961 7.38477C38.7878 7.61589 38.5322 7.79492 38.2295 7.92188C37.9268 8.04883 37.5817 8.1123 37.1943 8.1123C36.8265 8.1123 36.4977 8.05859 36.208 7.95117C35.9183 7.84375 35.6725 7.68424 35.4707 7.47266C35.2689 7.25781 35.1143 6.99089 35.0068 6.67188C34.8994 6.34961 34.8457 5.97526 34.8457 5.54883C34.8457 5.15495 34.901 4.79688 35.0117 4.47461C35.1257 4.15234 35.2868 3.87728 35.4951 3.64941C35.7067 3.42155 35.9639 3.24577 36.2666 3.12207C36.5693 2.99512 36.9111 2.93164 37.292 2.93164C37.6631 2.93164 37.9935 2.98698 38.2832 3.09766C38.5729 3.20508 38.8187 3.36621 39.0205 3.58105C39.2223 3.7959 39.3753 4.06283 39.4795 4.38184C39.5869 4.69759 39.6406 5.0638 39.6406 5.48047ZM38.4004 5.50977C38.4004 4.99544 38.3027 4.6097 38.1074 4.35254C37.9154 4.09212 37.6305 3.96191 37.2529 3.96191C37.0446 3.96191 36.8672 4.0026 36.7207 4.08398C36.5742 4.16536 36.4538 4.27767 36.3594 4.4209C36.265 4.56087 36.195 4.72526 36.1494 4.91406C36.1071 5.10286 36.0859 5.30469 36.0859 5.51953C36.0859 6.03711 36.1901 6.42773 36.3984 6.69141C36.6068 6.95182 36.8916 7.08203 37.2529 7.08203C37.4515 7.08203 37.624 7.04297 37.7705 6.96484C37.917 6.88346 38.0358 6.77279 38.127 6.63281C38.2181 6.48958 38.2865 6.32194 38.332 6.12988C38.3776 5.93783 38.4004 5.73112 38.4004 5.50977ZM42.2725 2.02832H40.8711V1.10059H43.4932V7.07227H44.9238V8H40.7002V7.07227H42.2725V2.02832ZM47.7705 2.02832H46.3691V1.10059H48.9912V7.07227H50.4219V8H46.1982V7.07227H47.7705V2.02832Z" fill="#454138"/>
<path d="M13.5 5.5H0.5" stroke="#454138"/>
<path d="M68.5 5.5H55.5" stroke="#454138"/>
</svg>
