<svg width="505" height="506" viewBox="0 0 505 506" fill="none" xmlns="http://www.w3.org/2000/svg">
<g filter="url(#filter0_d_30_3206)">
<circle cx="248.406" cy="244.942" r="241.406" fill="url(#paint0_radial_30_3206)" shape-rendering="crispEdges"/>
</g>
<path fill-rule="evenodd" clip-rule="evenodd" d="M135.807 326.937C135.805 326.936 135.803 326.935 140.19 319.86C144.577 312.786 144.576 312.785 144.574 312.784L144.591 312.794L144.681 312.85L145.088 313.096C145.458 313.317 146.023 313.653 146.77 314.085C148.265 314.949 150.487 316.2 153.332 317.709C159.028 320.73 167.197 324.77 177.019 328.81C196.79 336.942 222.691 344.833 248.407 344.833C274.122 344.833 300.024 336.942 319.794 328.81C329.617 324.77 337.785 320.73 343.481 317.709C346.327 316.2 348.548 314.949 350.043 314.085C350.79 313.653 351.355 313.317 351.725 313.096L352.132 312.85L352.223 312.794L352.239 312.784C352.238 312.785 352.236 312.786 356.623 319.86C361.01 326.935 361.008 326.936 361.007 326.937L360.946 326.975L360.803 327.062L360.289 327.373C359.846 327.639 359.204 328.019 358.376 328.498C356.722 329.454 354.322 330.805 351.282 332.417C345.206 335.639 336.543 339.923 326.127 344.208C305.419 352.725 277.212 361.482 248.407 361.482C219.601 361.482 191.394 352.725 170.686 344.208C160.27 339.923 151.607 335.639 145.531 332.417C142.491 330.805 140.092 329.454 138.437 328.498C137.609 328.019 136.968 327.639 136.524 327.373L136.01 327.062L135.868 326.975L135.825 326.949L135.807 326.937Z" fill="#DCD8C0"/>
<path fill-rule="evenodd" clip-rule="evenodd" d="M135.807 326.937C135.805 326.936 135.803 326.935 140.19 319.86C144.577 312.786 144.576 312.785 144.574 312.784L144.591 312.794L144.681 312.85L145.088 313.096C145.458 313.317 146.023 313.653 146.77 314.085C148.265 314.949 150.487 316.2 153.332 317.709C159.028 320.73 167.197 324.77 177.019 328.81C196.79 336.942 222.691 344.833 248.407 344.833C274.122 344.833 300.024 336.942 319.794 328.81C329.617 324.77 337.785 320.73 343.481 317.709C346.327 316.2 348.548 314.949 350.043 314.085C350.79 313.653 351.355 313.317 351.725 313.096L352.132 312.85L352.223 312.794L352.239 312.784C352.238 312.785 352.236 312.786 356.623 319.86C361.01 326.935 361.008 326.936 361.007 326.937L360.946 326.975L360.803 327.062L360.289 327.373C359.846 327.639 359.204 328.019 358.376 328.498C356.722 329.454 354.322 330.805 351.282 332.417C345.206 335.639 336.543 339.923 326.127 344.208C305.419 352.725 277.212 361.482 248.407 361.482C219.601 361.482 191.394 352.725 170.686 344.208C160.27 339.923 151.607 335.639 145.531 332.417C142.491 330.805 140.092 329.454 138.437 328.498C137.609 328.019 136.968 327.639 136.524 327.373L136.01 327.062L135.868 326.975L135.825 326.949L135.807 326.937Z" fill="#DCD8C0"/>
<path d="M123.542 203.32C123.542 184.93 138.45 170.023 156.839 170.023C175.229 170.023 190.137 184.93 190.137 203.32C190.137 221.71 175.229 236.618 156.839 236.618C138.45 236.618 123.542 221.71 123.542 203.32Z" fill="#DCD8C0"/>
<path d="M306.679 203.32C306.679 184.93 321.586 170.023 339.976 170.023C358.366 170.023 373.274 184.93 373.274 203.32C373.274 221.71 358.366 236.618 339.976 236.618C321.586 236.618 306.679 221.71 306.679 203.32Z" fill="#DCD8C0"/>
<path d="M145.501 202.589C145.501 187.934 157.381 176.053 172.036 176.053C186.691 176.053 198.572 187.934 198.572 202.589C198.572 217.244 186.691 229.124 172.036 229.124C157.381 229.124 145.501 217.244 145.501 202.589Z" fill="#454138"/>
<path d="M123.542 203.32C123.542 184.93 138.45 170.023 156.839 170.023C175.229 170.023 190.137 184.93 190.137 203.32C190.137 221.71 175.229 236.618 156.839 236.618C138.45 236.618 123.542 221.71 123.542 203.32Z" fill="#DCD8C0"/>
<path d="M145.501 202.589C145.501 187.934 157.381 176.053 172.036 176.053C186.691 176.053 198.572 187.934 198.572 202.589C198.572 217.244 186.691 229.124 172.036 229.124C157.381 229.124 145.501 217.244 145.501 202.589Z" fill="#454138"/>
<path d="M333.189 202.589C333.189 187.934 345.07 176.053 359.725 176.053C374.38 176.053 386.26 187.934 386.26 202.589C386.26 217.244 374.38 229.124 359.725 229.124C345.07 229.124 333.189 217.244 333.189 202.589Z" fill="#454138"/>
<defs>
<filter id="filter0_d_30_3206" x="0" y="0.535645" width="504.812" height="504.813" filterUnits="userSpaceOnUse" color-interpolation-filters="sRGB">
<feFlood flood-opacity="0" result="BackgroundImageFix"/>
<feColorMatrix in="SourceAlpha" type="matrix" values="0 0 0 0 0 0 0 0 0 0 0 0 0 0 0 0 0 0 127 0" result="hardAlpha"/>
<feOffset dx="4" dy="8"/>
<feGaussianBlur stdDeviation="5.5"/>
<feComposite in2="hardAlpha" operator="out"/>
<feColorMatrix type="matrix" values="0 0 0 0 0.270588 0 0 0 0 0.254902 0 0 0 0 0.219608 0 0 0 0.24 0"/>
<feBlend mode="normal" in2="BackgroundImageFix" result="effect1_dropShadow_30_3206"/>
<feBlend mode="normal" in="SourceGraphic" in2="effect1_dropShadow_30_3206" result="shape"/>
</filter>
<radialGradient id="paint0_radial_30_3206" cx="0" cy="0" r="1" gradientUnits="userSpaceOnUse" gradientTransform="translate(248.406 244.942) rotate(90) scale(241.406)">
<stop offset="0.529271" stop-color="#454138"/>
<stop offset="0.656862" stop-color="#454138"/>
<stop offset="1" stop-color="#454138" stop-opacity="0.86"/>
</radialGradient>
</defs>
</svg>
